<?xml version="1.0" encoding="UTF-8"?>
<!DOCTYPE svg PUBLIC "-//W3C//DTD SVG 1.1//EN" "http://www.w3.org/Graphics/SVG/1.1/DTD/svg11.dtd">
<svg xmlns="http://www.w3.org/2000/svg" version="1.1" width="320px" height="294px" style="shape-rendering:geometricPrecision; text-rendering:geometricPrecision; image-rendering:optimizeQuality; fill-rule:evenodd; clip-rule:evenodd" xmlns:xlink="http://www.w3.org/1999/xlink">
<g><path style="opacity:1" fill="#fbfdfe" d="M -0.5,-0.5 C 3.5,-0.5 7.5,-0.5 11.5,-0.5C 5.83333,1.83333 1.83333,5.83333 -0.5,11.5C -0.5,7.5 -0.5,3.5 -0.5,-0.5 Z"/></g>
<g><path style="opacity:1" fill="#92c4fc" d="M 11.5,-0.5 C 110.167,-0.5 208.833,-0.5 307.5,-0.5C 313.167,1.83333 317.167,5.83333 319.5,11.5C 319.5,101.167 319.5,190.833 319.5,280.5C 317.5,287.167 313.167,291.5 306.5,293.5C 287.833,293.5 269.167,293.5 250.5,293.5C 248.767,276.568 243.933,260.568 236,245.5C 228.868,236.677 219.701,231.011 208.5,228.5C 207.35,222.068 205.35,215.902 202.5,210C 205.771,206.717 208.271,202.884 210,198.5C 213.844,186.114 216.344,173.448 217.5,160.5C 224.733,152.951 227.233,143.951 225,133.5C 224.588,131.003 223.422,129.003 221.5,127.5C 220.534,125.604 220.201,123.604 220.5,121.5C 222.582,121.528 224.416,120.861 226,119.5C 227.946,116.861 228.946,113.861 229,110.5C 241.725,97.8816 241.558,85.3816 228.5,73C 225.415,71.0404 222.248,69.2071 219,67.5C 217.751,48.8911 208.417,42.5578 191,48.5C 182.433,33.6444 170.266,29.8111 154.5,37C 151.213,39.7753 148.546,42.942 146.5,46.5C 127.691,38.0746 115.024,43.5746 108.5,63C 92.6182,63.0456 85.9515,70.8789 88.5,86.5C 78.7762,88.3859 72.2762,94.0526 69,103.5C 67.5452,114.421 71.3785,122.921 80.5,129C 71.3634,138.043 71.1967,147.21 80,156.5C 79.8333,165.667 84.3333,170.167 93.5,170C 97.5992,177.088 103.599,179.588 111.5,177.5C 112.474,179.743 112.808,182.076 112.5,184.5C 100.206,184.184 89.2056,187.684 79.5,195C 76.2959,197.869 73.4626,201.035 71,204.5C 70.6667,208.5 70.3333,212.5 70,216.5C 64.4234,220.706 58.5901,224.54 52.5,228C 45.6092,233.945 41.4425,241.445 40,250.5C 39.6667,262.5 39.3333,274.5 39,286.5C 38.7096,288.92 38.2096,291.254 37.5,293.5C 28.8333,293.5 20.1667,293.5 11.5,293.5C 5.40726,291.075 1.40726,286.741 -0.5,280.5C -0.5,190.833 -0.5,101.167 -0.5,11.5C 1.83333,5.83333 5.83333,1.83333 11.5,-0.5 Z"/></g>
<g><path style="opacity:1" fill="#fbfdfe" d="M 307.5,-0.5 C 311.5,-0.5 315.5,-0.5 319.5,-0.5C 319.5,3.5 319.5,7.5 319.5,11.5C 317.167,5.83333 313.167,1.83333 307.5,-0.5 Z"/></g>
<g><path style="opacity:1" fill="#050506" d="M 250.5,293.5 C 249.5,293.5 248.5,293.5 247.5,293.5C 245.538,277.778 241.038,262.778 234,248.5C 227.887,239.519 219.387,234.185 208.5,232.5C 207.673,249.152 201.173,263.152 189,274.5C 188.333,273.833 188.333,273.167 189,272.5C 204.657,256.515 208.991,237.848 202,216.5C 201.313,214.445 200.146,212.779 198.5,211.5C 192.414,215.356 185.747,217.356 178.5,217.5C 179.119,221.93 180.119,226.263 181.5,230.5C 181.5,231.833 180.833,232.5 179.5,232.5C 178.733,231.828 178.066,230.995 177.5,230C 164.594,228.462 153.428,223.295 144,214.5C 139.21,208.041 134.043,201.874 128.5,196C 129.167,195.333 129.833,195.333 130.5,196C 137.437,202.791 145.437,207.458 154.5,210C 146.335,194.145 146.669,178.479 155.5,163C 148.093,162.61 143.26,158.776 141,151.5C 139.844,147.582 139.344,143.582 139.5,139.5C 135.154,139.334 130.821,139.501 126.5,140C 125.333,141.833 124.167,143.667 123,145.5C 119.256,135.721 112.422,132.221 102.5,135C 96.4876,142.792 95.9876,150.958 101,159.5C 105.252,165.221 110.752,169.387 117.5,172C 116.107,182.369 114.607,192.869 113,203.5C 111.774,206.952 110.274,210.285 108.5,213.5C 107.675,214.386 106.675,214.719 105.5,214.5C 104.537,210.204 104.371,205.871 105,201.5C 105.667,204.167 106.333,206.833 107,209.5C 107.667,210.833 108.333,210.833 109,209.5C 110.816,201.934 111.983,194.268 112.5,186.5C 96.4325,186.457 83.5992,192.79 74,205.5C 73.4673,221.235 78.1339,235.235 88,247.5C 99.135,259.817 112.302,269.317 127.5,276C 99.2809,267.118 80.1142,248.618 70,220.5C 64.1667,224.333 58.3333,228.167 52.5,232C 46.7957,238.774 43.6291,246.607 43,255.5C 42.6552,268.179 42.1552,280.845 41.5,293.5C 40.1667,293.5 38.8333,293.5 37.5,293.5C 38.2096,291.254 38.7096,288.92 39,286.5C 39.3333,274.5 39.6667,262.5 40,250.5C 41.4425,241.445 45.6092,233.945 52.5,228C 58.5901,224.54 64.4234,220.706 70,216.5C 70.3333,212.5 70.6667,208.5 71,204.5C 73.4626,201.035 76.2959,197.869 79.5,195C 89.2056,187.684 100.206,184.184 112.5,184.5C 112.808,182.076 112.474,179.743 111.5,177.5C 103.599,179.588 97.5992,177.088 93.5,170C 84.3333,170.167 79.8333,165.667 80,156.5C 71.1967,147.21 71.3634,138.043 80.5,129C 71.3785,122.921 67.5452,114.421 69,103.5C 72.2762,94.0526 78.7762,88.3859 88.5,86.5C 85.9515,70.8789 92.6182,63.0456 108.5,63C 115.024,43.5746 127.691,38.0746 146.5,46.5C 148.546,42.942 151.213,39.7753 154.5,37C 170.266,29.8111 182.433,33.6444 191,48.5C 208.417,42.5578 217.751,48.8911 219,67.5C 222.248,69.2071 225.415,71.0404 228.5,73C 241.558,85.3816 241.725,97.8816 229,110.5C 228.946,113.861 227.946,116.861 226,119.5C 224.416,120.861 222.582,121.528 220.5,121.5C 220.201,123.604 220.534,125.604 221.5,127.5C 223.422,129.003 224.588,131.003 225,133.5C 227.233,143.951 224.733,152.951 217.5,160.5C 216.344,173.448 213.844,186.114 210,198.5C 208.271,202.884 205.771,206.717 202.5,210C 205.35,215.902 207.35,222.068 208.5,228.5C 219.701,231.011 228.868,236.677 236,245.5C 243.933,260.568 248.767,276.568 250.5,293.5 Z"/></g>
<g><path style="opacity:1" fill="#f9f9f9" d="M 144.5,91.5 C 148.182,91.3347 151.848,91.5014 155.5,92C 167.84,95.003 180.174,98.003 192.5,101C 196.167,101.667 199.833,101.667 203.5,101C 206.876,99.1013 210.543,98.268 214.5,98.5C 217.14,107.943 218.14,117.61 217.5,127.5C 211.465,127.537 205.465,128.037 199.5,129C 198.257,130.154 197.257,131.488 196.5,133C 193.11,133.246 189.777,133.746 186.5,134.5C 185.296,131.585 183.296,129.419 180.5,128C 168.871,126.27 157.205,125.27 145.5,125C 141.55,127.436 139.55,130.936 139.5,135.5C 135.833,135.5 132.167,135.5 128.5,135.5C 128.452,128.156 128.118,120.823 127.5,113.5C 127.203,101.473 132.87,94.1394 144.5,91.5 Z"/></g>
<g><path style="opacity:1" fill="#111111" d="M 158.5,115.5 C 163.179,115.334 167.845,115.501 172.5,116C 175.387,117.276 176.554,119.443 176,122.5C 167.863,123.8 159.696,123.633 151.5,122C 150.167,121 150.167,120 151.5,119C 154.069,118.102 156.402,116.935 158.5,115.5 Z"/></g>
<g><path style="opacity:1" fill="#131313" d="M 201.5,117.5 C 207.718,116.944 212.718,119.111 216.5,124C 211.345,125.61 206.012,125.943 200.5,125C 199.426,124.261 198.759,123.261 198.5,122C 199.315,120.357 200.315,118.857 201.5,117.5 Z"/></g>
<g><path style="opacity:1" fill="#f8f8f8" d="M 145.5,128.5 C 157.223,128.575 168.89,129.409 180.5,131C 183.013,133.396 184.013,136.396 183.5,140C 184.43,149.733 180.096,155.399 170.5,157C 149.149,162.652 139.982,154.486 143,132.5C 144.095,131.307 144.928,129.973 145.5,128.5 Z"/></g>
<g><path style="opacity:1" fill="#f7f7f7" d="M 212.5,129.5 C 214.167,129.5 215.833,129.5 217.5,129.5C 216.87,138.506 216.203,147.506 215.5,156.5C 203.108,156.425 197.775,150.091 199.5,137.5C 211.436,138.409 211.436,137.409 199.5,134.5C 200.364,132.803 201.697,131.637 203.5,131C 206.695,130.819 209.695,130.319 212.5,129.5 Z"/></g>
<g><path style="opacity:1" fill="#84b1e3" d="M 219.5,128.5 C 221.173,129.343 222.34,130.676 223,132.5C 223.667,137.833 223.667,143.167 223,148.5C 222.222,151.184 220.889,153.517 219,155.5C 218.625,146.495 218.792,137.495 219.5,128.5 Z"/></g>
<g><path style="opacity:1" fill="#1c1c1c" d="M 156.5,132.5 C 161.377,131.812 165.71,132.979 169.5,136C 163.848,135.397 158.181,135.397 152.5,136C 154.093,135.051 155.426,133.885 156.5,132.5 Z"/></g>
<g><path style="opacity:1" fill="#fbfbfb" d="M 179.5,232.5 C 184.191,242.438 181.525,249.605 171.5,254C 149.26,256.037 131.426,248.203 118,230.5C 115.153,226.13 112.32,221.797 109.5,217.5C 117.651,239.116 133.317,252.616 156.5,258C 178.595,260.754 186.929,251.587 181.5,230.5C 180.119,226.263 179.119,221.93 178.5,217.5C 185.747,217.356 192.414,215.356 198.5,211.5C 200.146,212.779 201.313,214.445 202,216.5C 208.991,237.848 204.657,256.515 189,272.5C 188.333,273.167 188.333,273.833 189,274.5C 201.173,263.152 207.673,249.152 208.5,232.5C 219.387,234.185 227.887,239.519 234,248.5C 241.038,262.778 245.538,277.778 247.5,293.5C 244.833,293.5 242.167,293.5 239.5,293.5C 239.695,289.063 237.861,287.396 234,288.5C 233.506,290.134 233.34,291.801 233.5,293.5C 219.167,293.5 204.833,293.5 190.5,293.5C 193.383,288.615 192.716,284.115 188.5,280C 187.552,279.517 186.552,279.351 185.5,279.5C 184.885,275.153 183.385,271.153 181,267.5C 181.107,271.436 181.94,275.269 183.5,279C 181.665,284.51 182.665,289.343 186.5,293.5C 174.167,293.5 161.833,293.5 149.5,293.5C 149.766,289.109 149.1,284.943 147.5,281C 149.749,264.486 148.749,264.486 144.5,281C 140.8,284.25 139.134,288.417 139.5,293.5C 106.833,293.5 74.1667,293.5 41.5,293.5C 42.1552,280.845 42.6552,268.179 43,255.5C 43.6291,246.607 46.7957,238.774 52.5,232C 58.3333,228.167 64.1667,224.333 70,220.5C 80.1142,248.618 99.2809,267.118 127.5,276C 112.302,269.317 99.135,259.817 88,247.5C 78.1339,235.235 73.4673,221.235 74,205.5C 83.5992,192.79 96.4325,186.457 112.5,186.5C 111.983,194.268 110.816,201.934 109,209.5C 108.333,210.833 107.667,210.833 107,209.5C 106.333,206.833 105.667,204.167 105,201.5C 104.371,205.871 104.537,210.204 105.5,214.5C 106.675,214.719 107.675,214.386 108.5,213.5C 110.274,210.285 111.774,206.952 113,203.5C 114.607,192.869 116.107,182.369 117.5,172C 110.752,169.387 105.252,165.221 101,159.5C 95.9876,150.958 96.4876,142.792 102.5,135C 112.422,132.221 119.256,135.721 123,145.5C 124.167,143.667 125.333,141.833 126.5,140C 130.821,139.501 135.154,139.334 139.5,139.5C 139.344,143.582 139.844,147.582 141,151.5C 143.26,158.776 148.093,162.61 155.5,163C 146.669,178.479 146.335,194.145 154.5,210C 145.437,207.458 137.437,202.791 130.5,196C 129.833,195.333 129.167,195.333 128.5,196C 134.043,201.874 139.21,208.041 144,214.5C 153.428,223.295 164.594,228.462 177.5,230C 178.066,230.995 178.733,231.828 179.5,232.5 Z"/></g>
<g><path style="opacity:1" fill="#f5f5f5" d="M 185.5,137.5 C 188.833,137.5 192.167,137.5 195.5,137.5C 196.313,145.401 197.813,153.067 200,160.5C 196.551,166.544 191.385,168.71 184.5,167C 182.167,165.333 179.833,163.667 177.5,162C 174.471,161.461 171.471,160.794 168.5,160C 181.587,158.082 187.254,150.582 185.5,137.5 Z"/></g>
<g><path style="opacity:1" fill="#131313" d="M 105.5,141.5 C 114.416,141.123 117.416,145.29 114.5,154C 116.708,159.804 115.874,159.971 112,154.5C 111.788,151.242 111.288,148.076 110.5,145C 107.196,143.958 105.029,145.125 104,148.5C 103.391,145.935 103.891,143.601 105.5,141.5 Z"/></g>
<g><path style="opacity:1" fill="#f0f0f0" d="M 203.5,157.5 C 206.881,159.346 210.547,160.346 214.5,160.5C 213.261,173.194 210.428,185.528 206,197.5C 204.667,199.5 203.333,201.5 202,203.5C 203.016,195.566 203.849,187.566 204.5,179.5C 204.952,174.298 203.952,169.464 201.5,165C 202.871,162.681 203.538,160.181 203.5,157.5 Z"/></g>
<g><path style="opacity:1" fill="#f6f6f6" d="M 164.5,169.5 C 169.327,169.941 173.993,171.107 178.5,173C 184.167,173.333 189.833,173.667 195.5,174C 197.038,176.928 197.704,180.094 197.5,183.5C 198.22,194.277 193.72,197.277 184,192.5C 177.024,196.95 169.857,197.45 162.5,194C 161.299,193.097 160.465,191.931 160,190.5C 159.333,185.5 159.333,180.5 160,175.5C 161.332,173.34 162.832,171.34 164.5,169.5 Z"/></g>
<g><path style="opacity:1" fill="#111111" d="M 166.5,171.5 C 173.354,175.172 180.687,177.339 188.5,178C 181.008,183.21 174.175,182.376 168,175.5C 167.209,174.255 166.709,172.922 166.5,171.5 Z"/></g>
<g><path style="opacity:1" fill="#141414" d="M 90.5,226.5 C 91.3764,226.369 92.0431,226.702 92.5,227.5C 99.8962,242.563 110.23,255.23 123.5,265.5C 123.167,265.833 122.833,266.167 122.5,266.5C 106.268,257.603 95.6013,244.27 90.5,226.5 Z"/></g>
<g><path style="opacity:1" fill="#161616" d="M 179.5,232.5 C 180.833,232.5 181.5,231.833 181.5,230.5C 186.929,251.587 178.595,260.754 156.5,258C 133.317,252.616 117.651,239.116 109.5,217.5C 112.32,221.797 115.153,226.13 118,230.5C 131.426,248.203 149.26,256.037 171.5,254C 181.525,249.605 184.191,242.438 179.5,232.5 Z"/></g>
<g><path style="opacity:1" fill="#191919" d="M 149.5,293.5 C 146.167,293.5 142.833,293.5 139.5,293.5C 139.134,288.417 140.8,284.25 144.5,281C 148.749,264.486 149.749,264.486 147.5,281C 149.1,284.943 149.766,289.109 149.5,293.5 Z"/></g>
<g><path style="opacity:1" fill="#101010" d="M 190.5,293.5 C 189.167,293.5 187.833,293.5 186.5,293.5C 182.665,289.343 181.665,284.51 183.5,279C 181.94,275.269 181.107,271.436 181,267.5C 183.385,271.153 184.885,275.153 185.5,279.5C 186.552,279.351 187.552,279.517 188.5,280C 192.716,284.115 193.383,288.615 190.5,293.5 Z"/></g>
<g><path style="opacity:1" fill="#fbfcfe" d="M -0.5,280.5 C 1.40726,286.741 5.40726,291.075 11.5,293.5C 7.5,293.5 3.5,293.5 -0.5,293.5C -0.5,289.167 -0.5,284.833 -0.5,280.5 Z"/></g>
<g><path style="opacity:1" fill="#fafcfe" d="M 319.5,280.5 C 319.5,284.833 319.5,289.167 319.5,293.5C 315.167,293.5 310.833,293.5 306.5,293.5C 313.167,291.5 317.5,287.167 319.5,280.5 Z"/></g>
<g><path style="opacity:1" fill="#1d1d1d" d="M 239.5,293.5 C 237.5,293.5 235.5,293.5 233.5,293.5C 233.34,291.801 233.506,290.134 234,288.5C 237.861,287.396 239.695,289.063 239.5,293.5 Z"/></g>
</svg>
